/* XPM */
static char *close_pressed[] = {
/* columns rows colors chars-per-pixel */
"20 20 48 1 ",
"  c #D81313",
". c #D91313",
"X c #D91515",
"o c #D81616",
"O c #D91616",
"+ c #D81717",
"@ c #D91717",
"# c #D71818",
"$ c #D71919",
"% c #D41A1A",
"& c #D81818",
"* c #D81919",
"= c #D81A1A",
"- c #D81D1D",
"; c #D82626",
": c #DB2626",
"> c #D72B2B",
", c #D62C2C",
"< c #D62E2E",
"1 c #DA2929",
"2 c #DB2929",
"3 c #D92A2A",
"4 c #DA2B2B",
"5 c #D73131",
"6 c #D53838",
"7 c #DE5757",
"8 c #DA5B5B",
"9 c #DD5D5D",
"0 c #E15858",
"q c #E15959",
"w c #E15B5B",
"e c #E25A5A",
"r c #DF7373",
"t c #DD7A7A",
"y c #E06C6C",
"u c #E06F6F",
"i c #EA9C9C",
"p c #EB9C9C",
"a c #EA9D9D",
"s c #EB9D9D",
"d c #E99E9E",
"f c #E9AEAE",
"g c #EFBCBC",
"h c #F0BEBE",
"j c #EDC0C0",
"k c #EDC1C1",
"l c #EEC2C2",
"z c #F7EFEF",
/* pixels */
"@@@@@@@@@@@@@@@@@@@%",
"@@@@@@@@@@@@@@@@@@@@",
"@@@@@@@@@@@@@@@@@@@@",
"@@@@@@@@@@@@@@@@@@@@",
"@@@@@@@@@@@@@@@@@@@@",
"@@@@@@@oO@@@++@@@@@@",
"@@@@@O<r2X@X78&@@@@@",
"@@@@@O,dp: 0h9#@@@@@",
"@@@@@@X:pdugqX@@@@@@",
"@@@@@@@X1jzy.@@@@@@@",
"@@@@@@@X0lki:X@@@@@@",
"@@@@@@=whq3ps4@@@@@@",
"@@@@@X6feXX:at$@@@@@",
"@@@@@@-5*@@X;>@@@@@@",
"@@@@@@@O@@@@OO@@@@@@",
"@@@@@@@@@@@@@@@@@@@@",
"@@@@@@@@@@@@@@@@@@@@",
"@@@@@@@@@@@@@@@@@@@@",
"@@@@@@@@@@@@@@@@@@@@",
"@@@@@@@@@@@@@@@@@@@@"
};
