/* XPM */
static char *close_inactive[] = {
/* columns rows colors chars-per-pixel */
"20 20 52 1 ",
"  c #26333B",
". c #27343B",
"X c #27353C",
"o c #28353C",
"O c #28363D",
"+ c #29363D",
"@ c #29363E",
"# c #29373E",
"$ c #2A373E",
"% c #2B373E",
"& c #2B383F",
"* c #2D3940",
"= c #2D3A41",
"- c #2E3A41",
"; c #2F3B42",
": c #303C42",
"> c #323D44",
", c #333F45",
"< c #38444B",
"1 c #39454B",
"2 c #3C484E",
"3 c #3D484E",
"4 c #3E494F",
"5 c #404B51",
"6 c #414C51",
"7 c #434E53",
"8 c #465055",
"9 c #495258",
"0 c #4B555A",
"q c #565E63",
"w c #6A7377",
"e c #6A7378",
"r c #6C7479",
"t c #6C7579",
"y c #6D7579",
"u c #767D81",
"i c #787E81",
"p c #83898C",
"a c #878C8F",
"s c #8C9194",
"d c #979B9D",
"f c #ABB0B2",
"g c #ACB0B2",
"h c #ADB1B3",
"j c #AFB3B5",
"k c #B0B3B5",
"l c #C3C4C5",
"z c #CACCCD",
"x c #CCCECF",
"c c #D2D3D3",
"v c #D3D4D5",
"b c #F9F8F8",
/* pixels */
"$$$$$$$$$$$$$$$$$$$>",
"$$$$$$$$$$$$$$$$$$$$",
"$$$$$$$$$$$$$$$$$$$$",
"$$$$$$$$$$$$$$$$$$$$",
"$$$$$$$$$$$$$$$$$$$$",
"$$$$$$#&#$$$&&#$$$$$",
"$$$$$+9s2o#Oyi=#$$$$",
"$$$$$+8kg1.wxu-#$$$$",
"$$$$$$o1fjazeo#$$$$$",
"$$$$$$$o4cbp $$$$$$$",
"$$$$$$@owvvh<o$$$$$$",
"$$$$$#;yxt6gg5%$$$$$",
"$$$$$oqlroX1hd:#$$$$",
"$$$$$#,0*#$O37%$$$$$",
"$$$$$$#O$$$$++$$$$$$",
"$$$$$$$$$$$$$$$$$$$$",
"$$$$$$$$$$$$$$$$$$$$",
"$$$$$$$$$$$$$$$$$$$$",
"$$$$$$$$$$$$$$$$$$$$",
"$$$$$$$$$$$$$$$$$$$$"
};
