/* XPM */
static char *close_active[] = {
/* columns rows colors chars-per-pixel */
"20 20 49 1 ",
"  c #425761",
". c #425862",
"X c #435862",
"o c #435863",
"O c #435963",
"+ c #445963",
"@ c #455A64",
"# c #465A64",
"$ c #475B65",
"% c #485C65",
"& c #495C66",
"* c #495D66",
"= c #4A5D66",
"- c #4B5F68",
"; c #51656E",
": c #52656E",
"> c #54666E",
", c #556770",
"< c #576971",
"1 c #576972",
"2 c #596971",
"3 c #5B6B72",
"4 c #5D6C74",
"5 c #5F6E76",
"6 c #67747B",
"7 c #7C8A90",
"8 c #7D8A90",
"9 c #7C8A91",
"0 c #7D8B91",
"q c #7E8B92",
"w c #848E92",
"e c #848F94",
"r c #90999E",
"t c #939CA0",
"y c #969EA2",
"u c #9FA4A7",
"i c #B4BBBE",
"p c #B5BBBE",
"a c #B5BBBF",
"s c #B5BCBE",
"d c #B5BCBF",
"f c #B7BDC0",
"g c #C6C9CA",
"h c #CFD2D4",
"j c #D0D4D5",
"k c #D4D6D6",
"l c #D5D7D8",
"z c #D6D7D8",
"x c #F8F7F6",
/* pixels */
"@@@@@@@@@@@@@@@@@@@=",
"@@@@@@@@@@@@@@@@@@@@",
"@@@@@@@@@@@@@@@@@@@@",
"@@@@@@@@@@@@@@@@@@@@",
"@@@@@@@@@@@@@@@@@@@@",
"@@@@@@@#@@@@##@@@@@@",
"@@@@@+4y,o@+8w$@@@@@",
"@@@@@+3fa:.9je%@@@@@",
"@@@@@@O:ifth9O@@@@@@",
"@@@@@@@X,kxr @@@@@@@",
"@@@@@@@o7zls;o@@@@@@",
"@@@@@@*qj0<ad1@@@@@@",
"@@@@@O6g0oX:pu&@@@@@",
"@@@@@@-5$@@+>2@@@@@@",
"@@@@@@@+@@@@++@@@@@@",
"@@@@@@@@@@@@@@@@@@@@",
"@@@@@@@@@@@@@@@@@@@@",
"@@@@@@@@@@@@@@@@@@@@",
"@@@@@@@@@@@@@@@@@@@@",
"@@@@@@@@@@@@@@@@@@@@"
};
