/* XPM */
static char *hide_active[] = {
/* columns rows colors chars-per-pixel */
"20 20 23 1 ",
"  c #27343B",
". c #28353C",
"X c #29363D",
"o c #2A373E",
"O c #2B383F",
"+ c #2F3C42",
"@ c #303C43",
"# c #344046",
"$ c #354148",
"% c #38444A",
"& c #39444A",
"* c #39444B",
"= c #475156",
"- c #646B6F",
"; c #73797D",
": c #757B7E",
"> c #757B7F",
", c #757C7F",
"< c #A0A3A4",
"1 c #C1C2C2",
"2 c #C4C6C6",
"3 c #C5C6C7",
"4 c #C6C7C8",
/* pixels */
"oooooooooooooooooooo",
"oooooooooooooooooooo",
"oooooooooooooooooooo",
"oooooooooooooooooooo",
"oooooooooooooooooooo",
"oooooooooooooooooooo",
"oooooooooooooooooooo",
"oooooooooooooooooooo",
"oooooooooooooooooooo",
"oooooooooooooooooooo",
"oooooooXXXXXXXoooooo",
"oooooo@%&&&&*$Oooooo",
"ooooo.-132224<#Xoooo",
"oooooX=;>:::,-+ooooo",
"ooooooX      .oooooo",
"oooooooooooooooooooo",
"oooooooooooooooooooo",
"oooooooooooooooooooo",
"oooooooooooooooooooo",
"oooooooooooooooooooo"
};
