/* XPM */
static char *hide_prelight[] = {
/* columns rows colors chars-per-pixel */
"20 20 22 1 ",
"  c #34444D",
". c #34454D",
"X c #35454D",
"o c #36464E",
"O c #37474F",
"+ c #384850",
"@ c #3C4B52",
"# c #3C4B53",
"$ c #404F56",
"% c #415057",
"& c #445259",
"* c #44525A",
"= c #44535A",
"- c #515C62",
"; c #6B7478",
": c #798185",
"> c #7B8387",
", c #7C8387",
"< c #A3A6A7",
"1 c #C2C3C4",
"2 c #C6C7C8",
"3 c #C7C8C9",
/* pixels */
"OOOOOOOOOOOOOOOOOOOO",
"OOOOOOOOOOOOOOOOOOOO",
"OOOOOOOOOOOOOOOOOOOO",
"OOOOOOOOOOOOOOOOOOOO",
"OOOOOOOOOOOOOOOOOOOO",
"OOOOOOOOOOOOOOOOOOOO",
"OOOOOOOOOOOOOOOOOOOO",
"OOOOOOOOOOOOOOOOOOOO",
"OOOOOOOOOOOOOOOOOOOO",
"OOOOOOOOOOOOOOOOOOOO",
"OOOOOOOoooooooOOOOOO",
"OOOOOO#&****=%+OOOOO",
"OOOOOX;122223<$oOOOO",
"OOOOOo-:>>>>,;@OOOOO",
"OOOOOOo..... XOOOOOO",
"OOOOOOOOOOOOOOOOOOOO",
"OOOOOOOOOOOOOOOOOOOO",
"OOOOOOOOOOOOOOOOOOOO",
"OOOOOOOOOOOOOOOOOOOO",
"OOOOOOOOOOOOOOOOOOOO"
};
