/* XPM */
static char *maximize_active[] = {
/* columns rows colors chars-per-pixel */
"20 20 47 1 ",
"  c #31424A",
". c #33434C",
"X c #34444C",
"o c #34444D",
"O c #34454D",
"+ c #35454D",
"@ c #36464E",
"# c #37474F",
"$ c #384850",
"% c #3B4B52",
"& c #3C4B52",
"* c #404E55",
"= c #404E56",
"- c #415057",
"; c #425057",
": c #425058",
"> c #435259",
", c #44525A",
"< c #505C62",
"1 c #505D63",
"2 c #6A7377",
"3 c #6A7378",
"4 c #788084",
"5 c #798184",
"6 c #7B8387",
"7 c #7F878B",
"8 c #80888C",
"9 c #81898D",
"0 c #899093",
"q c #899094",
"w c #A2A6A7",
"e c #AFB2B4",
"r c #C1C2C3",
"t c #C1C3C3",
"y c #C1C3C4",
"u c #C2C3C4",
"i c #C3C5C6",
"p c #C4C6C7",
"a c #C5C6C7",
"s c #C5C7C7",
"d c #C5C7C8",
"f c #C6C7C8",
"g c #C8C9C9",
"h c #C9CACB",
"j c #D6D7D7",
"k c #D7D8D8",
"l c #E2E1E1",
/* pixels */
"####################",
"####################",
"####################",
"####################",
"#######@@@@@@@######",
"######%-;;;;;*$#####",
"#####+3ruyyypw=@####",
"#####o6jq998ei:@####",
"#####O6a-.X 7t;@####",
"#####O6f,@#X9y;@####",
"#####O6d>+@.9y;@####",
"#####O6g1>,-0y;@####",
"#####O5lhdfskr;@####",
"#####@<4666662&#####",
"######@OOOOOo+######",
"####################",
"####################",
"####################",
"####################",
"####################"
};
