/* XPM */
static char *maximize_inactive[] = {
/* columns rows colors chars-per-pixel */
"20 20 42 1 ",
"  c #233138",
". c #26333A",
"X c #27343B",
"o c #28353C",
"O c #29363D",
"+ c #2A373E",
"@ c #2B383F",
"# c #2F3B42",
"$ c #2F3C42",
"% c #344046",
"& c #364148",
"* c #364248",
"= c #374248",
"- c #38434A",
"; c #39444A",
": c #465055",
"> c #465056",
", c #636A6E",
"< c #72787C",
"1 c #72797C",
"2 c #747B7E",
"3 c #757B7E",
"4 c #797F83",
"5 c #798083",
"6 c #7A8184",
"7 c #7B8185",
"8 c #83898C",
"9 c #84898C",
"0 c #A0A2A4",
"q c #ACAFB0",
"w c #C0C1C2",
"e c #C1C2C3",
"r c #C2C3C4",
"t c #C3C4C5",
"y c #C4C5C5",
"u c #C4C5C6",
"i c #C4C6C6",
"p c #C7C8C8",
"a c #C8C9C9",
"s c #D6D6D6",
"d c #D7D7D8",
"f c #E2E2E2",
/* pixels */
"++++++++++++++++++++",
"++++++++++++++++++++",
"++++++++++++++++++++",
"++++++++++++++++++++",
"+++++++OOOOOOO++++++",
"++++++#******%@+++++",
"+++++o,wewwwt0%O++++",
"+++++X3s9675qr=O++++",
"+++++X3y&.X 4w*O++++",
"+++++X3i;O+X7w*O++++",
"+++++X3i-oO.6w*O++++",
"+++++X2p>-;&8w*O++++",
"+++++X1faiiudw*O++++",
"+++++O:<33333,$+++++",
"++++++OXXXXXXo++++++",
"++++++++++++++++++++",
"++++++++++++++++++++",
"++++++++++++++++++++",
"++++++++++++++++++++",
"++++++++++++++++++++"
};
