/* XPM */
static char *maximize_pressed[] = {
/* columns rows colors chars-per-pixel */
"20 20 40 1 ",
"  c #00BBD3",
". c #00BCD3",
"X c #03B9D4",
"o c #00BBD4",
"O c #07B8D5",
"+ c #00BCD4",
"@ c #09B8D5",
"# c #0AB8D5",
"$ c #0AB9D5",
"% c #0ABAD5",
"& c #0DBAD5",
"* c #0DBBD6",
"= c #0EBBD6",
"- c #16B4D6",
"; c #1ABAD8",
": c #32B4DB",
"> c #45BADE",
", c #49BCDF",
"< c #49BDDF",
"1 c #4ABDDF",
"2 c #74BEE5",
"3 c #53C2E0",
"4 c #52C3E1",
"5 c #54C3E1",
"6 c #5CC3E2",
"7 c #5DC4E2",
"8 c #8BCEEA",
"9 c #9ECDED",
"0 c #9FCDED",
"q c #9FCEED",
"w c #A0CEED",
"e c #A3D0EE",
"r c #A5D1EE",
"t c #A6D1EE",
"y c #A6D2EE",
"u c #A8D2EF",
"i c #ABD3EF",
"p c #BDDAF2",
"a c #BFDBF3",
"s c #CCDEF5",
/* pixels */
"++++++++++++++++++++",
"++++++++++++++++++++",
"++++++++++++++++++++",
"++++++++++++++++++++",
"++++++++++++++++++++",
"++++++X@$$$$$Oo+++++",
"++++++:9w000r2O+++++",
"++++++<p75548e$+++++",
"++++++,r&.. 30$+++++",
"++++++,y=++.50$+++++",
"++++++,y=++.50$+++++",
"++++++<u;*=%6q$+++++",
"++++++>siyyta9#+++++",
"++++++-><,,,1:X+++++",
"++++++++++++++++++++",
"++++++++++++++++++++",
"++++++++++++++++++++",
"++++++++++++++++++++",
"++++++++++++++++++++",
"++++++++++++++++++++"
};
